<svg width="40" height="40" viewBox="0 0 40 40" fill="none" xmlns="http://www.w3.org/2000/svg">
<mask id="mask0_84_1479" style="mask-type:alpha" maskUnits="userSpaceOnUse" x="0" y="0" width="40" height="40">
<rect width="40" height="40" fill="#D9D9D9"/>
</mask>
<g mask="url(#mask0_84_1479)">
<path d="M10.7691 36.288C10.0864 36.288 9.50978 36.0487 9.03917 35.5701C8.56856 35.0915 8.33325 34.5051 8.33325 33.8109V15.0364C8.33325 14.3421 8.56856 13.7557 9.03917 13.2771C9.50978 12.7985 10.0864 12.5592 10.7691 12.5592H14.2948V11.5814C14.2948 9.96176 14.8475 8.58989 15.9529 7.46577C17.0583 6.34162 18.4073 5.77954 19.9999 5.77954C21.5925 5.77954 22.9415 6.34162 24.0469 7.46577C25.1523 8.58989 25.705 9.96176 25.705 11.5814V12.5592H29.2307C29.9134 12.5592 30.4901 12.7985 30.9607 13.2771C31.4313 13.7557 31.6666 14.3421 31.6666 15.0364V33.8109C31.6666 34.5051 31.4313 35.0915 30.9607 35.5701C30.4901 36.0487 29.9134 36.288 29.2307 36.288H10.7691ZM10.7691 34.8539H29.2307C29.4871 34.8539 29.7222 34.7452 29.9358 34.5279C30.1495 34.3106 30.2563 34.0716 30.2563 33.8109V15.0364C30.2563 14.7756 30.1495 14.5366 29.9358 14.3193C29.7222 14.102 29.4871 13.9934 29.2307 13.9934H25.705V18.361C25.705 18.5653 25.6372 18.7359 25.5016 18.8728C25.366 19.0097 25.197 19.0781 24.9947 19.0781C24.7923 19.0781 24.6251 19.0097 24.493 18.8728C24.3609 18.7359 24.2948 18.5653 24.2948 18.361V13.9934H15.705V18.361C15.705 18.5653 15.6372 18.7359 15.5016 18.8728C15.366 19.0097 15.197 19.0781 14.9947 19.0781C14.7923 19.0781 14.6251 19.0097 14.493 18.8728C14.3608 18.7359 14.2948 18.5653 14.2948 18.361V13.9934H10.7691C10.5127 13.9934 10.2777 14.102 10.064 14.3193C9.85034 14.5366 9.7435 14.7756 9.7435 15.0364V33.8109C9.7435 34.0716 9.85034 34.3106 10.064 34.5279C10.2777 34.7452 10.5127 34.8539 10.7691 34.8539ZM15.705 12.5592H24.2948V11.5814C24.2948 10.3522 23.8812 9.31694 23.0539 8.47564C22.2266 7.63434 21.2086 7.21369 19.9999 7.21369C18.7912 7.21369 17.7732 7.63434 16.946 8.47564C16.1187 9.31694 15.705 10.3522 15.705 11.5814V12.5592Z" fill="currentColor"/>
</g>
</svg>
